<svg width="47" height="45" viewBox="0 0 47 45" fill="none" xmlns="http://www.w3.org/2000/svg">
<g clip-path="url(#clip0)">
<path d="M46.07 13.4985C44.0177 8.4986 37.6957 5.50021 32.3412 7.48443C26.2292 9.74929 28.2557 19.0573 22.7041 20.9394C19.7052 21.9562 15.272 18.1582 12.2421 17.5759C6.65893 16.5027 1.60459 20.2745 0.360004 25.4978C-0.909731 30.8266 1.12678 37.944 7.24174 39.3903C14.5258 41.1131 18.3201 34.8438 24.4306 33.0436C30.7013 31.1963 37.6735 35.5592 42.8647 30.2508C46.7 26.3291 48.1022 18.4496 46.07 13.4985Z" fill="url(#paint0_linear)"/>
<path opacity="0.1" d="M43.773 15.6967C43.773 12.2252 40.8338 9.41098 37.208 9.41098C34.399 9.41098 32.0032 11.1007 31.0659 13.4759H7.32654C6.31255 13.4759 5.4906 14.2629 5.4906 15.2337V34.6936C5.4906 35.6644 6.31255 36.4514 7.32654 36.4514H39.6735C40.6875 36.4514 41.5094 35.6644 41.5094 34.6936V20.443C42.8954 19.2905 43.773 17.5923 43.773 15.6967Z" fill="#2626BC"/>
<path d="M39.6735 34.2541H7.32648C6.31249 34.2541 5.49054 33.4672 5.49054 32.4963V13.0365C5.49054 12.0656 6.31249 11.2787 7.32648 11.2787H39.6734C40.6874 11.2787 41.5093 12.0656 41.5093 13.0365V32.4963C41.5094 33.4672 40.6874 34.2541 39.6735 34.2541Z" fill="#9FB0FE"/>
<path d="M41.5096 13.0369V20.4637C40.3576 21.4208 38.8539 22.0009 37.208 22.0009C33.582 22.0009 30.6427 19.1866 30.6427 15.7158C30.6427 13.9844 31.3743 12.4155 32.5576 11.2791H39.6737C40.6871 11.2791 41.5096 12.0657 41.5096 13.0369Z" fill="#8399FE"/>
<path d="M41.5096 13.0369V15.2526L25.178 27.2646C24.6989 27.6171 24.1031 27.8104 23.5 27.8104C22.8969 27.8104 22.3011 27.6171 21.8219 27.2646L5.49036 15.2526V13.0369C5.49036 12.0657 6.31286 11.2791 7.32629 11.2791H39.6737C40.6871 11.2791 41.5096 12.0657 41.5096 13.0369Z" fill="#8399FE"/>
<path d="M24.0592 19.6621L41.5094 32.4963C41.5094 33.4672 40.6875 34.2541 39.6735 34.2541H7.32648C6.31249 34.2541 5.49054 33.4672 5.49054 32.4963L22.9408 19.6621C23.2706 19.4195 23.7294 19.4195 24.0592 19.6621Z" fill="#8399FE"/>
<path d="M29.7872 23.8747L25.1781 27.2646C24.6989 27.6171 24.1031 27.8104 23.5 27.8104C22.8969 27.8104 22.3011 27.6171 21.822 27.2646L17.2128 23.8747L22.941 19.6621C23.2705 19.4195 23.7295 19.4195 24.059 19.6621L29.7872 23.8747Z" fill="#6583FE"/>
<path d="M22.9408 25.8708L5.49054 13.0365C5.49054 12.0656 6.31249 11.2787 7.32648 11.2787H39.6734C40.6874 11.2787 41.5093 12.0656 41.5093 13.0365L24.0592 25.8708C23.7294 26.1133 23.2706 26.1133 22.9408 25.8708Z" fill="#B7C5FF"/>
<path d="M34.0518 31.9153H31.102C30.8485 31.9153 30.643 31.7185 30.643 31.4758V29.5287C30.643 29.2861 30.8485 29.0893 31.102 29.0893H34.0518C34.3052 29.0893 34.5108 29.2861 34.5108 29.5287V31.4758C34.5108 31.7186 34.3052 31.9153 34.0518 31.9153Z" fill="#02FFB3"/>
<path d="M28.6287 30.1239H26.0737C25.8202 30.1239 25.6147 29.9271 25.6147 29.6844C25.6147 29.4418 25.8202 29.245 26.0737 29.245H28.6287C28.8823 29.245 29.0877 29.4418 29.0877 29.6844C29.0877 29.9271 28.8823 30.1239 28.6287 30.1239Z" fill="white"/>
<path d="M28.6287 31.9153H19.6479C19.3944 31.9153 19.189 31.7185 19.189 31.4758C19.189 31.2332 19.3944 31.0364 19.6479 31.0364H28.6287C28.8823 31.0364 29.0877 31.2332 29.0877 31.4758C29.0877 31.7185 28.8823 31.9153 28.6287 31.9153Z" fill="white"/>
<path d="M37.208 19.7851C40.8337 19.7851 43.773 16.9709 43.773 13.4994C43.773 10.0279 40.8337 7.21371 37.208 7.21371C33.5822 7.21371 30.6429 10.0279 30.6429 13.4994C30.6429 16.9709 33.5822 19.7851 37.208 19.7851Z" fill="#FF5BA8"/>
<path d="M37.208 20.2245C41.081 20.2245 44.232 17.2077 44.232 13.4994C44.232 9.79111 41.0811 6.77426 37.208 6.77426C33.3349 6.77426 30.184 9.79111 30.184 13.4994C30.184 15.6566 31.2515 17.5784 32.906 18.8098L23.7796 25.5222C23.6152 25.6433 23.3851 25.6434 23.2203 25.5222L5.96602 12.832C6.06892 12.2019 6.6399 11.7181 7.32645 11.7181H28.3815C28.6351 11.7181 28.8405 11.5213 28.8405 11.2787C28.8405 11.036 28.6351 10.8392 28.3815 10.8392H7.32654C6.06112 10.8392 5.03162 11.8249 5.03162 13.0365V32.4963C5.03162 33.7079 6.06112 34.6936 7.32654 34.6936H39.6735C40.9389 34.6936 41.9684 33.7079 41.9684 32.4963V20.8825C41.9684 20.6398 41.763 20.443 41.5094 20.443C41.2559 20.443 41.0504 20.6398 41.0504 20.8825V31.6046L29.0335 22.7664L33.7096 19.3272C34.7405 19.8968 35.9347 20.2245 37.208 20.2245ZM17.9664 22.7664L5.94959 31.6046V13.9282L17.9664 22.7664ZM41.0323 32.6996C40.9296 33.3302 40.3603 33.8147 39.6734 33.8147H7.32654C6.63962 33.8147 6.0703 33.3302 5.96767 32.6996L18.72 23.3206L22.6612 26.2192C22.9081 26.4008 23.2041 26.4916 23.5001 26.4916C23.796 26.4916 24.0919 26.4009 24.3389 26.2192L28.2801 23.3205L41.0323 32.6996ZM31.1019 13.4994C31.1019 10.2758 33.8411 7.65317 37.208 7.65317C40.5749 7.65317 43.314 10.2757 43.314 13.4994C43.314 16.723 40.5749 19.3456 37.208 19.3456C33.8411 19.3456 31.1019 16.723 31.1019 13.4994Z" fill="#2626BC"/>
<path d="M34.3425 11.3558L35.2793 13.4994L34.3425 15.643C34.1834 16.007 34.5672 16.3718 34.9461 16.2167L40.6025 13.9035C40.9741 13.7516 40.9741 13.2472 40.6025 13.0953L34.9461 10.7821C34.5672 10.6271 34.1834 10.9918 34.3425 11.3558Z" fill="white"/>
<path d="M37.4164 13.9097L34.596 15.0637L35.2791 13.4992L34.5952 11.9348L37.4164 13.0888C37.7683 13.2329 37.7683 13.7664 37.4164 13.9097Z" fill="#FFDBED"/>
<path d="M30.3689 7.17813C30.028 7.17813 29.6871 7.05394 29.4277 6.80547C28.9087 6.30854 28.9087 5.50003 29.4277 5.00319C29.9465 4.50643 30.7911 4.50625 31.31 5.00319C31.829 5.50012 31.829 6.30863 31.31 6.80547C31.0506 7.05394 30.7098 7.17813 30.3689 7.17813ZM30.3689 5.509C30.2632 5.509 30.1573 5.5475 30.0767 5.62466C29.9157 5.77882 29.9157 6.02975 30.0767 6.184C30.2379 6.33816 30.4997 6.33825 30.6609 6.184C30.8219 6.02984 30.8219 5.77891 30.6609 5.62466C30.5804 5.54758 30.4746 5.509 30.3689 5.509Z" fill="#00ECA2"/>
<path d="M20.061 40.3695C19.7202 40.3695 19.3793 40.2452 19.1199 39.9969C18.6008 39.4999 18.6008 38.6914 19.1199 38.1946C19.6387 37.6977 20.4834 37.6977 21.0022 38.1946C21.5213 38.6915 21.5213 39.5 21.0022 39.9969C20.7428 40.2453 20.4019 40.3695 20.061 40.3695ZM20.061 38.7004C19.9553 38.7004 19.8495 38.7389 19.7689 38.816C19.6078 38.9702 19.6078 39.2211 19.7689 39.3754C19.9301 39.5296 20.1919 39.5296 20.3531 39.3754C20.5142 39.2212 20.5142 38.9703 20.3531 38.816C20.2726 38.739 20.1668 38.7004 20.061 38.7004Z" fill="#00ECA2"/>
<path d="M27.0598 8.30979C26.9424 8.30979 26.8248 8.2669 26.7353 8.18112L26.1878 7.65694L25.6402 8.18112C25.4611 8.35268 25.1703 8.35268 24.9912 8.18112C24.8119 8.00947 24.8119 7.7312 24.9912 7.55964L25.8633 6.72468C26.0424 6.55312 26.3332 6.55312 26.5123 6.72468L27.3844 7.55964C27.5636 7.73129 27.5636 8.00955 27.3844 8.18112C27.2948 8.26681 27.1773 8.30979 27.0598 8.30979Z" fill="#FF7EB8"/>
<path d="M40.3672 38.7002C40.2498 38.7002 40.1322 38.6573 40.0427 38.5715L39.4952 38.0473L38.9476 38.5715C38.7685 38.7431 38.4777 38.7431 38.2986 38.5715C38.1193 38.3999 38.1193 38.1216 38.2986 37.9501L39.1707 37.1151C39.3497 36.9435 39.6406 36.9435 39.8197 37.1151L40.6917 37.9501C40.871 38.1217 40.871 38.4 40.6917 38.5715C40.6022 38.6572 40.4846 38.7002 40.3672 38.7002Z" fill="#FF7EB8"/>
<path d="M16.4209 39.1177C16.3035 39.1177 16.1859 39.0748 16.0964 38.989L15.5489 38.4648L15.0013 38.989C14.8222 39.1606 14.5314 39.1606 14.3523 38.989C14.173 38.8174 14.173 38.5391 14.3523 38.3675L15.2244 37.5326C15.4035 37.361 15.6943 37.361 15.8734 37.5326L16.7454 38.3675C16.9247 38.5392 16.9247 38.8174 16.7454 38.989C16.6558 39.0747 16.5383 39.1177 16.4209 39.1177Z" fill="#6583FE"/>
</g>
<defs>
<linearGradient id="paint0_linear" x1="39.6865" y1="44.1778" x2="19.3814" y2="16.0823" gradientUnits="userSpaceOnUse">
<stop stop-color="#C6D1FF"/>
<stop offset="0.5834" stop-color="#E6D5F4"/>
<stop offset="0.997" stop-color="#FFD9EC"/>
</linearGradient>
<clipPath id="clip0">
<rect width="47" height="45" fill="white"/>
</clipPath>
</defs>
</svg>
